<svg width="30" height="30" viewBox="0 0 30 30" fill="none" xmlns="http://www.w3.org/2000/svg">
<path fill-rule="evenodd" clip-rule="evenodd" d="M13.6102 0.035181C11.7711 0.213125 10.0319 0.715805 8.32666 1.56235C6.79478 2.32282 5.56795 3.21119 4.34905 4.44266C3.12411 5.68023 2.31915 6.8139 1.54371 8.39358C0.573373 10.3701 0.0968304 12.2551 0.0111195 14.4559C-0.189987 19.6159 2.34831 24.5665 6.691 27.4841C10.5154 30.0536 15.4059 30.6989 19.8208 29.2168C20.8019 28.8874 22.4008 28.1088 23.2393 27.5521C25.5243 26.035 27.2793 24.0389 28.4776 21.5942C29.2115 20.0967 29.6284 18.7555 29.891 17.0473C30.0363 16.1021 30.0363 13.8856 29.891 12.9405C29.6284 11.2323 29.2115 9.89111 28.4776 8.39358C27.6943 6.79554 26.8213 5.57979 25.5608 4.33207C24.3233 3.10705 23.1897 2.30205 21.6101 1.52656C20.1305 0.800113 18.7607 0.371709 17.1222 0.122892C16.3854 0.0110092 14.378 -0.0391532 13.6102 0.035181ZM17.2102 1.43802C18.8646 1.71805 20.1133 2.14992 21.6101 2.95967C24.3558 4.44507 26.6194 7.01901 27.768 9.96175C28.4094 11.605 28.6933 13.1267 28.6961 14.9352C28.6996 17.184 28.2749 19.0327 27.3013 21.0075C24.9741 25.7282 20.2612 28.6639 15.0102 28.6639C11.3125 28.6639 7.91418 27.2479 5.27873 24.6092C3.537 22.8652 2.24072 20.5361 1.6743 18.1327C0.895097 14.8266 1.38578 11.2461 3.01352 8.36049C5.11306 4.63868 8.58778 2.18624 12.7809 1.46677C14.0979 1.24078 15.9733 1.22863 17.2102 1.43802Z" fill="#EDEDED"/>
</svg>
