<svg width="6" height="21" viewBox="0 0 6 21" fill="none" xmlns="http://www.w3.org/2000/svg">
<path d="M3.1875 7.59677C4.74219 7.59677 6 8.89516 6 10.5C6 12.1048 4.74219 13.4032 3.1875 13.4032C1.63281 13.4032 0.375 12.1048 0.375 10.5C0.375 8.89516 1.63281 7.59677 3.1875 7.59677ZM0.375 3.40323C0.375 5.00806 1.63281 6.30645 3.1875 6.30645C4.74219 6.30645 6 5.00806 6 3.40323C6 1.79839 4.74219 0.5 3.1875 0.5C1.63281 0.5 0.375 1.79839 0.375 3.40323ZM0.375 17.5968C0.375 19.2016 1.63281 20.5 3.1875 20.5C4.74219 20.5 6 19.2016 6 17.5968C6 15.9919 4.74219 14.6935 3.1875 14.6935C1.63281 14.6935 0.375 15.9919 0.375 17.5968Z" fill="#EDEDED"/>
</svg>
