<svg width="38" height="30" viewBox="0 0 38 30" fill="none" xmlns="http://www.w3.org/2000/svg">
<path fill-rule="evenodd" clip-rule="evenodd" d="M3.40443 0.0946942C1.76359 0.549262 0.52688 1.79901 0.144365 3.38896C-0.0481216 4.18921 -0.0481216 25.8274 0.144365 26.6277C0.496113 28.0899 1.69256 29.3819 3.11956 29.8404C3.60217 29.9954 4.05419 30 19 30C33.9458 30 34.3978 29.9954 34.8804 29.8404C36.3146 29.3796 37.5021 28.0973 37.8556 26.6277C38.0481 25.8274 38.0481 4.18921 37.8556 3.38896C37.5091 1.9486 36.4108 0.734561 34.9737 0.203332L34.4684 0.016621L19.1271 0.00283356C6.93344 -0.0081299 3.70761 0.0107241 3.40443 0.0946942ZM34.5761 1.95865C35.1569 2.21587 35.8013 2.902 36.0082 3.48323C36.1559 3.89868 36.1636 4.46861 36.1636 15.0083C36.1636 25.548 36.1559 26.1179 36.0082 26.5334C35.8013 27.1146 35.1569 27.8007 34.5761 28.058L34.1294 28.2558H19H3.8706L3.42393 28.058C2.87562 27.8152 2.21171 27.1276 1.99371 26.5769C1.84377 26.1981 1.83521 25.6668 1.81106 15.299C1.78512 4.16338 1.79461 3.77542 2.1061 3.18506C2.28681 2.8427 2.8852 2.2275 3.18813 2.07268C3.8795 1.71944 3.42749 1.72875 19.1271 1.74511L34.1294 1.76081L34.5761 1.95865Z" fill="#EDEDED"/>
</svg>
