<svg width="30" height="30" viewBox="0 0 30 30" fill="none" xmlns="http://www.w3.org/2000/svg">
<path fill-rule="evenodd" clip-rule="evenodd" d="M2.92497 0.11466C1.56769 0.471102 0.531135 1.47895 0.10773 2.85371C0.00475539 3.18821 0 3.72249 0 14.9987C0 26.275 0.00475539 26.8093 0.10773 27.1438C0.534716 28.5301 1.57409 29.5334 2.94798 29.8856C3.38296 29.9971 3.69575 30 15 30C26.3042 30 26.617 29.9971 27.052 29.8856C28.4259 29.5334 29.4653 28.5301 29.8923 27.1438C29.9952 26.8093 30 26.275 30 14.9987C30 3.72249 29.9952 3.18821 29.8923 2.85371C29.4653 1.46736 28.4259 0.464043 27.052 0.111895C26.6169 0.00035662 26.3097 -0.00246715 14.9759 0.000709593C3.78452 0.0038275 3.33053 0.00812199 2.92497 0.11466ZM26.4955 1.23005C27.6234 1.39347 28.5268 2.3102 28.6846 3.45147C28.718 3.69314 28.7332 8.32353 28.723 15.1753C28.7078 25.4575 28.6975 26.5241 28.6108 26.7644C28.3017 27.6216 27.6946 28.2165 26.8676 28.4726C26.5022 28.5858 26.2587 28.5881 15 28.5881C3.74125 28.5881 3.49785 28.5858 3.13239 28.4726C2.30542 28.2165 1.69832 27.6216 1.38922 26.7644C1.3025 26.5241 1.29217 25.4575 1.27697 15.1753C1.26681 8.32353 1.28202 3.69314 1.31542 3.45147C1.46941 2.33785 2.38227 1.39006 3.45164 1.23346C3.89477 1.16857 26.0486 1.16528 26.4955 1.23005Z" fill="#EDEDED"/>
</svg>
