<svg width="34" height="30" viewBox="0 0 34 30" fill="none" xmlns="http://www.w3.org/2000/svg">
<path fill-rule="evenodd" clip-rule="evenodd" d="M15.8843 0.119688C15.0697 0.355278 14.6135 0.623392 14.024 1.21289C13.587 1.64984 14.2109 0.614688 6.67625 13.4051C2.58676 20.3472 0.278382 24.3294 0.170334 24.6284C0.0276429 25.0231 0.00244266 25.2084 0.000181954 25.8772C-0.00221174 26.5879 0.0166718 26.7155 0.198659 27.2216C0.679325 28.5581 1.73049 29.5062 3.15121 29.8848C3.55707 29.993 4.39985 30 16.9814 30C28.0159 30 30.4439 29.9844 30.7452 29.9115C30.9463 29.8628 31.3652 29.7041 31.676 29.5587C32.6448 29.1055 33.4552 28.1882 33.801 27.1533C34.1796 26.0202 34.0148 24.8084 33.3339 23.7176C33.1991 23.5016 30.2682 18.5248 26.8208 12.658C23.3735 6.79113 20.4612 1.85847 20.3491 1.6965C19.8478 0.972458 18.8994 0.326745 18.0025 0.0988121C17.4516 -0.0411675 16.4049 -0.0308277 15.8843 0.119688ZM18.0571 1.58211C18.474 1.7681 18.9815 2.19366 19.2082 2.54724C19.5019 3.0052 32.0435 24.3835 32.2516 24.7809C32.5184 25.2904 32.5806 25.6787 32.4926 26.2838C32.3208 27.4646 31.4019 28.3553 30.18 28.5255C29.8855 28.5666 24.925 28.5909 16.6774 28.5917C4.71363 28.5929 3.61339 28.5841 3.31265 28.4846C1.90729 28.0195 1.11724 26.5582 1.54345 25.2122C1.62011 24.97 4.02118 20.8064 8.10389 13.8359C11.6456 7.78912 14.6434 2.69292 14.7657 2.51112C14.9758 2.1987 15.4152 1.81796 15.7846 1.62818C16.395 1.31459 17.4115 1.29397 18.0571 1.58211Z" fill="#EDEDED"/>
</svg>
